<svg id="visual" viewBox="0 0 960 16" width="960" height="16" xmlns="http://www.w3.org/2000/svg" xmlns:xlink="http://www.w3.org/1999/xlink" version="1.1"><rect x="0" y="0" width="960" height="16" fill="#002233"></rect><path d="M0 15L31 1L62 2L93 8L124 11L155 15L186 4L217 0L248 5L279 9L310 4L341 15L372 0L403 10L434 12L465 0L495 2L526 7L557 8L588 6L619 8L650 11L681 12L712 1L743 15L774 0L805 13L836 4L867 8L898 14L929 11L960 10L960 17L929 17L898 17L867 17L836 17L805 17L774 17L743 17L712 17L681 17L650 17L619 17L588 17L557 17L526 17L495 17L465 17L434 17L403 17L372 17L341 17L310 17L279 17L248 17L217 17L186 17L155 17L124 17L93 17L62 17L31 17L0 17Z" fill="#e9ebfc" stroke-linecap="square" stroke-linejoin="bevel"></path></svg>