<svg id="visual" viewBox="0 0 960 16" width="960" height="16" xmlns="http://www.w3.org/2000/svg" xmlns:xlink="http://www.w3.org/1999/xlink" version="1.1"><path d="M0 7L31 10L62 0L93 4L124 4L155 9L186 0L217 7L248 9L279 0L310 15L341 13L372 2L403 14L434 0L465 13L495 14L526 9L557 0L588 5L619 7L650 15L681 2L712 12L743 9L774 0L805 6L836 10L867 5L898 2L929 5L960 15L960 0L929 0L898 0L867 0L836 0L805 0L774 0L743 0L712 0L681 0L650 0L619 0L588 0L557 0L526 0L495 0L465 0L434 0L403 0L372 0L341 0L310 0L279 0L248 0L217 0L186 0L155 0L124 0L93 0L62 0L31 0L0 0Z" fill="#fff" stroke-linecap="square" stroke-linejoin="bevel"></path></svg>