<?xml version="1.0" standalone="no"?><svg xmlns:xlink="http://www.w3.org/1999/xlink" xmlns="http://www.w3.org/2000/svg" viewBox="0 0 1000 562.5009540382531" preserveAspectRatio="xMaxYMax slice"><g transform="scale(0.7632306024942376)"><rect x="0" y="0" width="1310.2222222222222" height="737" fill="#2F4052"/><rect x="581.411111111111" y="90.07777777777777" width="65.5111111111111" height="65.5111111111111" fill="#2F4052"/><path d="M 581.41 122.84 A 32.76 32.76 0 0 1  614.17 90.08 L 581.41 122.84 A 32.76 32.76 0 0 0 614.17 90.08" fill="#1f9d8a"/><rect x="990.8555555555555" y="90.07777777777777" width="65.5111111111111" height="65.5111111111111" fill="#2F4052"/><path d="M 990.86 122.84 A 32.76 32.76 0 0 1  1023.62 90.08 L 990.86 122.84 A 32.76 32.76 0 0 0 1023.62 90.08" fill="#2f4052"/><rect x="90.07777777777777" y="171.96666666666667" width="65.5111111111111" height="65.5111111111111" fill="#2F4052"/><g transform="translate(122.83,171.97) scale(1.638) rotate(0)"><path d="M10 0L20 10L10 20L0 10L10 0Z" fill="#1da991"/></g><rect x="253.85555555555555" y="171.96666666666667" width="65.5111111111111" height="65.5111111111111" fill="#2F4052"/><rect x="335.7444444444444" y="171.96666666666667" width="65.5111111111111" height="65.5111111111111" fill="#2F4052"/><g transform="translate(335.74,171.97) scale(1.638) rotate(0)"><path d="M10 0L20 10L10 20L0 10L10 0Z" fill="#2e4555"/></g><path d="M 368.5 171.97 A 32.76 32.76 0 0 1  401.26 204.73 L 368.5 171.97 A 32.76 32.76 0 0 0 401.26 204.73" fill="#2f4052"/><rect x="417.6333333333333" y="171.96666666666667" width="65.5111111111111" height="65.5111111111111" fill="#2F4052"/><rect x="499.5222222222222" y="171.96666666666667" width="65.5111111111111" height="65.5111111111111" fill="#2F4052"/><rect x="908.9666666666666" y="171.96666666666667" width="65.5111111111111" height="65.5111111111111" fill="#2F4052"/><g transform="translate(941.72,204.72) scale(1.638) rotate(0)"><path d="M10 0L20 10L10 20L0 10L10 0Z" fill="#2e4857"/></g><rect x="1072.7444444444443" y="171.96666666666667" width="65.5111111111111" height="65.5111111111111" fill="#2F4052"/><path d="M 1072.74 204.73 A 32.76 32.76 0 0 1  1105.5 171.97 L 1072.74 204.73 A 32.76 32.76 0 0 0 1105.5 171.97" fill="#2f4052"/><path d="M 1105.5 204.73 A 32.76 32.76 0 0 1  1138.26 171.97 L 1105.5 204.73 A 32.76 32.76 0 0 0 1138.26 171.97" fill="#2f4052"/><g transform="translate(1105.5,204.72) scale(1.638) rotate(0)"><path d="M10 0L20 10L10 20L0 10L10 0Z" fill="#2f4052"/></g><rect x="1154.6333333333332" y="171.96666666666667" width="65.5111111111111" height="65.5111111111111" fill="#2F4052"/><path d="M 1154.63 204.73 A 32.76 32.76 0 0 1  1187.39 171.97 L 1154.63 204.73 A 32.76 32.76 0 0 0 1187.39 171.97" fill="#267773"/><rect x="581.411111111111" y="253.85555555555555" width="65.5111111111111" height="65.5111111111111" fill="#2F4052"/><rect x="908.9666666666666" y="253.85555555555555" width="65.5111111111111" height="65.5111111111111" fill="#2F4052"/><g transform="translate(908.97,253.86) scale(1.638) rotate(0)"><path d="M10 0L20 10L10 20L0 10L10 0Z" fill="#228c80"/></g><rect x="990.8555555555555" y="253.85555555555555" width="65.5111111111111" height="65.5111111111111" fill="#2F4052"/><g transform="translate(1023.61,253.86) scale(1.638) rotate(0)"><path d="M10 0L20 10L10 20L0 10L10 0Z" fill="#1ea38e"/></g><g transform="translate(1023.61,286.61) scale(1.638) rotate(0)"><path d="M10 0L20 10L10 20L0 10L10 0Z" fill="#23847b"/></g><rect x="1072.7444444444443" y="253.85555555555555" width="65.5111111111111" height="65.5111111111111" fill="#2F4052"/><g transform="translate(1105.5,253.86) scale(1.638) rotate(0)"><path d="M10 0L20 10L10 20L0 10L10 0Z" fill="#24827a"/></g><g transform="translate(1072.74,286.61) scale(1.638) rotate(0)"><path d="M10 0L20 10L10 20L0 10L10 0Z" fill="#2d4a58"/></g><rect x="1154.6333333333332" y="253.85555555555555" width="65.5111111111111" height="65.5111111111111" fill="#2F4052"/><g transform="translate(1154.63,253.86) scale(1.638) rotate(0)"><path d="M10 0L20 10L10 20L0 10L10 0Z" fill="#296267"/></g><path d="M 1187.39 319.37 A 32.76 32.76 0 0 1  1220.15 286.61 L 1187.39 319.37 A 32.76 32.76 0 0 0 1220.15 286.61" fill="#2f4052"/><rect x="8.188888888888888" y="335.7444444444444" width="65.5111111111111" height="65.5111111111111" fill="#2F4052"/><path d="M 40.94 335.74 A 32.76 32.76 0 0 1  73.69999999999999 368.5 L 40.94 335.74 A 32.76 32.76 0 0 0 73.69999999999999 368.5" fill="#228b7f"/><g transform="translate(40.94,368.5) scale(1.638) rotate(0)"><path d="M10 0L20 10L10 20L0 10L10 0Z" fill="#1dac93"/></g><rect x="171.96666666666667" y="335.7444444444444" width="65.5111111111111" height="65.5111111111111" fill="#2F4052"/><g transform="translate(204.72,335.74) scale(1.638) rotate(0)"><path d="M10 0L20 10L10 20L0 10L10 0Z" fill="#2f4052"/></g><rect x="253.85555555555555" y="335.7444444444444" width="65.5111111111111" height="65.5111111111111" fill="#2F4052"/><path d="M 253.86 368.5 A 32.76 32.76 0 0 1  286.62 335.74 L 253.86 368.5 A 32.76 32.76 0 0 0 286.62 335.74" fill="#2b565f"/><g transform="translate(253.86,368.5) scale(1.638) rotate(0)"><path d="M10 0L20 10L10 20L0 10L10 0Z" fill="#2f4052"/></g><path d="M 286.61 368.5 A 32.76 32.76 0 0 1  319.37 401.26 L 286.61 368.5 A 32.76 32.76 0 0 0 319.37 401.26" fill="#28676a"/><rect x="417.6333333333333" y="335.7444444444444" width="65.5111111111111" height="65.5111111111111" fill="#2F4052"/><path d="M 417.63 335.74 A 32.76 32.76 0 0 1  450.39 368.5 L 417.63 335.74 A 32.76 32.76 0 0 0 450.39 368.5" fill="#2f4052"/><path d="M 450.39 335.74 A 32.76 32.76 0 0 1  483.15 368.5 L 450.39 335.74 A 32.76 32.76 0 0 0 483.15 368.5" fill="#2f4052"/><g transform="translate(450.39,368.5) scale(1.638) rotate(0)"><path d="M10 0L20 10L10 20L0 10L10 0Z" fill="#2f4052"/></g><rect x="581.411111111111" y="335.7444444444444" width="65.5111111111111" height="65.5111111111111" fill="#2F4052"/><path d="M 581.41 368.5 A 32.76 32.76 0 0 1  614.17 335.74 L 581.41 368.5 A 32.76 32.76 0 0 0 614.17 335.74" fill="#228c80"/><rect x="663.3" y="335.7444444444444" width="65.5111111111111" height="65.5111111111111" fill="#2F4052"/><g transform="translate(663.3,335.74) scale(1.638) rotate(0)"><path d="M10 0L20 10L10 20L0 10L10 0Z" fill="#2f4052"/></g><path d="M 696.06 335.74 A 32.76 32.76 0 0 1  728.8199999999999 368.5 L 696.06 335.74 A 32.76 32.76 0 0 0 728.8199999999999 368.5" fill="#2f4052"/><g transform="translate(663.3,368.5) scale(1.638) rotate(0)"><path d="M10 0L20 10L10 20L0 10L10 0Z" fill="#1bb699"/></g><g transform="translate(696.06,368.5) scale(1.638) rotate(0)"><path d="M10 0L20 10L10 20L0 10L10 0Z" fill="#2a5d64"/></g><rect x="745.1888888888889" y="335.7444444444444" width="65.5111111111111" height="65.5111111111111" fill="#2F4052"/><path d="M 745.19 335.74 A 32.76 32.76 0 0 1  777.95 368.5 L 745.19 335.74 A 32.76 32.76 0 0 0 777.95 368.5" fill="#2f4052"/><g transform="translate(745.19,368.5) scale(1.638) rotate(0)"><path d="M10 0L20 10L10 20L0 10L10 0Z" fill="#296568"/></g><rect x="1236.5222222222221" y="335.7444444444444" width="65.5111111111111" height="65.5111111111111" fill="#2F4052"/><g transform="translate(1236.52,335.74) scale(1.638) rotate(0)"><path d="M10 0L20 10L10 20L0 10L10 0Z" fill="#2f4052"/></g><g transform="translate(1269.28,335.74) scale(1.638) rotate(0)"><path d="M10 0L20 10L10 20L0 10L10 0Z" fill="#296568"/></g><g transform="translate(1236.52,368.5) scale(1.638) rotate(0)"><path d="M10 0L20 10L10 20L0 10L10 0Z" fill="#2f4052"/></g><rect x="90.07777777777777" y="417.6333333333333" width="65.5111111111111" height="65.5111111111111" fill="#2F4052"/><path d="M 90.08 450.39 A 32.76 32.76 0 0 1  122.84 483.15 L 90.08 450.39 A 32.76 32.76 0 0 0 122.84 483.15" fill="#2e4354"/><path d="M 122.83 450.39 A 32.76 32.76 0 0 1  155.59 483.15 L 122.83 450.39 A 32.76 32.76 0 0 0 155.59 483.15" fill="#2f4052"/><rect x="171.96666666666667" y="417.6333333333333" width="65.5111111111111" height="65.5111111111111" fill="#2F4052"/><path d="M 171.97 417.63 A 32.76 32.76 0 0 1  204.73 450.39 L 171.97 417.63 A 32.76 32.76 0 0 0 204.73 450.39" fill="#1ea28d"/><path d="M 204.72 450.39 A 32.76 32.76 0 0 1  237.48 417.63 L 204.72 450.39 A 32.76 32.76 0 0 0 237.48 417.63" fill="#2f4052"/><path d="M 171.97 483.15 A 32.76 32.76 0 0 1  204.73 450.39 L 171.97 483.15 A 32.76 32.76 0 0 0 204.73 450.39" fill="#1caf95"/><g transform="translate(204.72,450.39) scale(1.638) rotate(0)"><path d="M10 0L20 10L10 20L0 10L10 0Z" fill="#228d81"/></g><rect x="253.85555555555555" y="417.6333333333333" width="65.5111111111111" height="65.5111111111111" fill="#2F4052"/><path d="M 253.86 417.63 A 32.76 32.76 0 0 1  286.62 450.39 L 253.86 417.63 A 32.76 32.76 0 0 0 286.62 450.39" fill="#2f4153"/><g transform="translate(286.61,417.63) scale(1.638) rotate(0)"><path d="M10 0L20 10L10 20L0 10L10 0Z" fill="#286a6b"/></g><rect x="417.6333333333333" y="417.6333333333333" width="65.5111111111111" height="65.5111111111111" fill="#2F4052"/><g transform="translate(417.63,417.63) scale(1.638) rotate(0)"><path d="M10 0L20 10L10 20L0 10L10 0Z" fill="#1cad94"/></g><path d="M 450.39 450.39 A 32.76 32.76 0 0 1  483.15 417.63 L 450.39 450.39 A 32.76 32.76 0 0 0 483.15 417.63" fill="#2f4052"/><path d="M 450.39 450.39 A 32.76 32.76 0 0 1  483.15 483.15 L 450.39 450.39 A 32.76 32.76 0 0 0 483.15 483.15" fill="#219183"/><rect x="581.411111111111" y="417.6333333333333" width="65.5111111111111" height="65.5111111111111" fill="#2F4052"/><path d="M 581.41 450.39 A 32.76 32.76 0 0 1  614.17 417.63 L 581.41 450.39 A 32.76 32.76 0 0 0 614.17 417.63" fill="#2f4052"/><path d="M 614.17 417.63 A 32.76 32.76 0 0 1  646.93 450.39 L 614.17 417.63 A 32.76 32.76 0 0 0 646.93 450.39" fill="#2f4052"/><g transform="translate(581.41,450.39) scale(1.638) rotate(0)"><path d="M10 0L20 10L10 20L0 10L10 0Z" fill="#2f4052"/></g><g transform="translate(614.17,450.39) scale(1.638) rotate(0)"><path d="M10 0L20 10L10 20L0 10L10 0Z" fill="#2f4052"/></g><rect x="663.3" y="417.6333333333333" width="65.5111111111111" height="65.5111111111111" fill="#2F4052"/><path d="M 663.3 450.39 A 32.76 32.76 0 0 1  696.06 417.63 L 663.3 450.39 A 32.76 32.76 0 0 0 696.06 417.63" fill="#2f4052"/><g transform="translate(663.3,450.39) scale(1.638) rotate(0)"><path d="M10 0L20 10L10 20L0 10L10 0Z" fill="#2f4052"/></g><g transform="translate(696.06,450.39) scale(1.638) rotate(0)"><path d="M10 0L20 10L10 20L0 10L10 0Z" fill="#2f4052"/></g><rect x="827.0777777777778" y="417.6333333333333" width="65.5111111111111" height="65.5111111111111" fill="#2F4052"/><g transform="translate(827.08,417.63) scale(1.638) rotate(0)"><path d="M10 0L20 10L10 20L0 10L10 0Z" fill="#2f4052"/></g><g transform="translate(859.83,417.63) scale(1.638) rotate(0)"><path d="M10 0L20 10L10 20L0 10L10 0Z" fill="#2f4052"/></g><path d="M 827.08 450.39 A 32.76 32.76 0 0 1  859.84 483.15 L 827.08 450.39 A 32.76 32.76 0 0 0 859.84 483.15" fill="#2f4052"/><g transform="translate(859.83,450.39) scale(1.638) rotate(0)"><path d="M10 0L20 10L10 20L0 10L10 0Z" fill="#2f4052"/></g><rect x="990.8555555555555" y="417.6333333333333" width="65.5111111111111" height="65.5111111111111" fill="#2F4052"/><path d="M 990.86 450.39 A 32.76 32.76 0 0 1  1023.62 417.63 L 990.86 450.39 A 32.76 32.76 0 0 0 1023.62 417.63" fill="#2f4052"/><g transform="translate(1023.61,417.63) scale(1.638) rotate(0)"><path d="M10 0L20 10L10 20L0 10L10 0Z" fill="#1bb498"/></g><path d="M 990.86 483.15 A 32.76 32.76 0 0 1  1023.62 450.39 L 990.86 483.15 A 32.76 32.76 0 0 0 1023.62 450.39" fill="#2f4052"/><g transform="translate(1023.61,450.39) scale(1.638) rotate(0)"><path d="M10 0L20 10L10 20L0 10L10 0Z" fill="#296367"/></g><rect x="1072.7444444444443" y="417.6333333333333" width="65.5111111111111" height="65.5111111111111" fill="#2F4052"/><path d="M 1072.74 417.63 A 32.76 32.76 0 0 1  1105.5 450.39 L 1072.74 417.63 A 32.76 32.76 0 0 0 1105.5 450.39" fill="#2f4052"/><g transform="translate(1105.5,417.63) scale(1.638) rotate(0)"><path d="M10 0L20 10L10 20L0 10L10 0Z" fill="#1f9c89"/></g><path d="M 1105.5 483.15 A 32.76 32.76 0 0 1  1138.26 450.39 L 1105.5 483.15 A 32.76 32.76 0 0 0 1138.26 450.39" fill="#2e4957"/><rect x="8.188888888888888" y="499.5222222222222" width="65.5111111111111" height="65.5111111111111" fill="#2F4052"/><g transform="translate(40.94,499.52) scale(1.638) rotate(0)"><path d="M10 0L20 10L10 20L0 10L10 0Z" fill="#2f4052"/></g><g transform="translate(8.19,532.28) scale(1.638) rotate(0)"><path d="M10 0L20 10L10 20L0 10L10 0Z" fill="#276e6e"/></g><g transform="translate(40.94,532.28) scale(1.638) rotate(0)"><path d="M10 0L20 10L10 20L0 10L10 0Z" fill="#2f4052"/></g><rect x="171.96666666666667" y="499.5222222222222" width="65.5111111111111" height="65.5111111111111" fill="#2F4052"/><g transform="translate(171.97,499.52) scale(1.638) rotate(0)"><path d="M10 0L20 10L10 20L0 10L10 0Z" fill="#209987"/></g><path d="M 204.72 499.52 A 32.76 32.76 0 0 1  237.48 532.28 L 204.72 499.52 A 32.76 32.76 0 0 0 237.48 532.28" fill="#267471"/><g transform="translate(171.97,532.28) scale(1.638) rotate(0)"><path d="M10 0L20 10L10 20L0 10L10 0Z" fill="#2f4052"/></g><g transform="translate(204.72,532.28) scale(1.638) rotate(0)"><path d="M10 0L20 10L10 20L0 10L10 0Z" fill="#1bb297"/></g><rect x="253.85555555555555" y="499.5222222222222" width="65.5111111111111" height="65.5111111111111" fill="#2F4052"/><g transform="translate(253.86,499.52) scale(1.638) rotate(0)"><path d="M10 0L20 10L10 20L0 10L10 0Z" fill="#2f4052"/></g><g transform="translate(286.61,499.52) scale(1.638) rotate(0)"><path d="M10 0L20 10L10 20L0 10L10 0Z" fill="#2d4957"/></g><g transform="translate(253.86,532.28) scale(1.638) rotate(0)"><path d="M10 0L20 10L10 20L0 10L10 0Z" fill="#2f4052"/></g><rect x="335.7444444444444" y="499.5222222222222" width="65.5111111111111" height="65.5111111111111" fill="#2F4052"/><g transform="translate(335.74,499.52) scale(1.638) rotate(0)"><path d="M10 0L20 10L10 20L0 10L10 0Z" fill="#2f4052"/></g><path d="M 368.5 532.28 A 32.76 32.76 0 0 1  401.26 499.52 L 368.5 532.28 A 32.76 32.76 0 0 0 401.26 499.52" fill="#2f4052"/><g transform="translate(335.74,532.28) scale(1.638) rotate(0)"><path d="M10 0L20 10L10 20L0 10L10 0Z" fill="#2f4052"/></g><g transform="translate(368.5,532.28) scale(1.638) rotate(0)"><path d="M10 0L20 10L10 20L0 10L10 0Z" fill="#2f4052"/></g><rect x="417.6333333333333" y="499.5222222222222" width="65.5111111111111" height="65.5111111111111" fill="#2F4052"/><g transform="translate(417.63,499.52) scale(1.638) rotate(0)"><path d="M10 0L20 10L10 20L0 10L10 0Z" fill="#2f4052"/></g><path d="M 417.63 565.04 A 32.76 32.76 0 0 1  450.39 532.28 L 417.63 565.04 A 32.76 32.76 0 0 0 450.39 532.28" fill="#296166"/><g transform="translate(450.39,532.28) scale(1.638) rotate(0)"><path d="M10 0L20 10L10 20L0 10L10 0Z" fill="#2f4052"/></g><rect x="499.5222222222222" y="499.5222222222222" width="65.5111111111111" height="65.5111111111111" fill="#2F4052"/><path d="M 499.52 532.28 A 32.76 32.76 0 0 1  532.28 499.52 L 499.52 532.28 A 32.76 32.76 0 0 0 532.28 499.52" fill="#2f4052"/><path d="M 532.28 532.28 A 32.76 32.76 0 0 1  565.04 499.52 L 532.28 532.28 A 32.76 32.76 0 0 0 565.04 499.52" fill="#1fa08c"/><path d="M 532.28 565.04 A 32.76 32.76 0 0 1  565.04 532.28 L 532.28 565.04 A 32.76 32.76 0 0 0 565.04 532.28" fill="#267371"/><rect x="581.411111111111" y="499.5222222222222" width="65.5111111111111" height="65.5111111111111" fill="#2F4052"/><g transform="translate(581.41,499.52) scale(1.638) rotate(0)"><path d="M10 0L20 10L10 20L0 10L10 0Z" fill="#1ab99b"/></g><g transform="translate(614.17,499.52) scale(1.638) rotate(0)"><path d="M10 0L20 10L10 20L0 10L10 0Z" fill="#2e4857"/></g><path d="M 581.41 532.28 A 32.76 32.76 0 0 1  614.17 565.04 L 581.41 532.28 A 32.76 32.76 0 0 0 614.17 565.04" fill="#267471"/><rect x="663.3" y="499.5222222222222" width="65.5111111111111" height="65.5111111111111" fill="#2F4052"/><path d="M 663.3 532.28 A 32.76 32.76 0 0 1  696.06 565.04 L 663.3 532.28 A 32.76 32.76 0 0 0 696.06 565.04" fill="#2f4052"/><path d="M 696.06 565.04 A 32.76 32.76 0 0 1  728.8199999999999 532.28 L 696.06 565.04 A 32.76 32.76 0 0 0 728.8199999999999 532.28" fill="#1cad94"/><rect x="908.9666666666666" y="499.5222222222222" width="65.5111111111111" height="65.5111111111111" fill="#2F4052"/><path d="M 908.97 532.28 A 32.76 32.76 0 0 1  941.73 499.52 L 908.97 532.28 A 32.76 32.76 0 0 0 941.73 499.52" fill="#296669"/><g transform="translate(941.72,532.28) scale(1.638) rotate(0)"><path d="M10 0L20 10L10 20L0 10L10 0Z" fill="#2f4052"/></g><rect x="990.8555555555555" y="499.5222222222222" width="65.5111111111111" height="65.5111111111111" fill="#2F4052"/><path d="M 990.86 532.28 A 32.76 32.76 0 0 1  1023.62 499.52 L 990.86 532.28 A 32.76 32.76 0 0 0 1023.62 499.52" fill="#2f4052"/><g transform="translate(1023.61,499.52) scale(1.638) rotate(0)"><path d="M10 0L20 10L10 20L0 10L10 0Z" fill="#2f4354"/></g><path d="M 990.86 565.04 A 32.76 32.76 0 0 1  1023.62 532.28 L 990.86 565.04 A 32.76 32.76 0 0 0 1023.62 532.28" fill="#2d4b58"/><path d="M 1023.61 532.28 A 32.76 32.76 0 0 1  1056.3700000000001 565.04 L 1023.61 532.28 A 32.76 32.76 0 0 0 1056.3700000000001 565.04" fill="#2f4052"/><rect x="1072.7444444444443" y="499.5222222222222" width="65.5111111111111" height="65.5111111111111" fill="#2F4052"/><g transform="translate(1072.74,499.52) scale(1.638) rotate(0)"><path d="M10 0L20 10L10 20L0 10L10 0Z" fill="#277170"/></g><path d="M 1105.5 499.52 A 32.76 32.76 0 0 1  1138.26 532.28 L 1105.5 499.52 A 32.76 32.76 0 0 0 1138.26 532.28" fill="#2f4052"/><path d="M 1072.74 565.04 A 32.76 32.76 0 0 1  1105.5 532.28 L 1072.74 565.04 A 32.76 32.76 0 0 0 1105.5 532.28" fill="#2f4052"/><g transform="translate(1105.5,532.28) scale(1.638) rotate(0)"><path d="M10 0L20 10L10 20L0 10L10 0Z" fill="#2f4052"/></g><rect x="1154.6333333333332" y="499.5222222222222" width="65.5111111111111" height="65.5111111111111" fill="#2F4052"/><g transform="translate(1154.63,499.52) scale(1.638) rotate(0)"><path d="M10 0L20 10L10 20L0 10L10 0Z" fill="#2f4052"/></g><g transform="translate(1187.39,499.52) scale(1.638) rotate(0)"><path d="M10 0L20 10L10 20L0 10L10 0Z" fill="#2f4052"/></g><g transform="translate(1187.39,532.28) scale(1.638) rotate(0)"><path d="M10 0L20 10L10 20L0 10L10 0Z" fill="#2a5e64"/></g><rect x="8.188888888888888" y="581.411111111111" width="65.5111111111111" height="65.5111111111111" fill="#2F4052"/><g transform="translate(8.19,581.41) scale(1.638) rotate(0)"><path d="M10 0L20 10L10 20L0 10L10 0Z" fill="#2f4052"/></g><path d="M 40.94 581.41 A 32.76 32.76 0 0 1  73.69999999999999 614.17 L 40.94 581.41 A 32.76 32.76 0 0 0 73.69999999999999 614.17" fill="#2a5d64"/><path d="M 8.19 646.93 A 32.76 32.76 0 0 1  40.949999999999996 614.17 L 8.19 646.93 A 32.76 32.76 0 0 0 40.949999999999996 614.17" fill="#1cb095"/><g transform="translate(40.94,614.17) scale(1.638) rotate(0)"><path d="M10 0L20 10L10 20L0 10L10 0Z" fill="#286c6c"/></g><rect x="90.07777777777777" y="581.411111111111" width="65.5111111111111" height="65.5111111111111" fill="#2F4052"/><path d="M 90.08 581.41 A 32.76 32.76 0 0 1  122.84 614.17 L 90.08 581.41 A 32.76 32.76 0 0 0 122.84 614.17" fill="#2f4052"/><g transform="translate(122.83,581.41) scale(1.638) rotate(0)"><path d="M10 0L20 10L10 20L0 10L10 0Z" fill="#2f4052"/></g><g transform="translate(90.08,614.17) scale(1.638) rotate(0)"><path d="M10 0L20 10L10 20L0 10L10 0Z" fill="#2f4052"/></g><g transform="translate(122.83,614.17) scale(1.638) rotate(0)"><path d="M10 0L20 10L10 20L0 10L10 0Z" fill="#2f4052"/></g><rect x="253.85555555555555" y="581.411111111111" width="65.5111111111111" height="65.5111111111111" fill="#2F4052"/><path d="M 253.86 614.17 A 32.76 32.76 0 0 1  286.62 581.41 L 253.86 614.17 A 32.76 32.76 0 0 0 286.62 581.41" fill="#2f4052"/><g transform="translate(286.61,581.41) scale(1.638) rotate(0)"><path d="M10 0L20 10L10 20L0 10L10 0Z" fill="#228d80"/></g><path d="M 253.86 646.93 A 32.76 32.76 0 0 1  286.62 614.17 L 253.86 646.93 A 32.76 32.76 0 0 0 286.62 614.17" fill="#1f9c89"/><g transform="translate(286.61,614.17) scale(1.638) rotate(0)"><path d="M10 0L20 10L10 20L0 10L10 0Z" fill="#2f4052"/></g><rect x="335.7444444444444" y="581.411111111111" width="65.5111111111111" height="65.5111111111111" fill="#2F4052"/><path d="M 335.74 614.17 A 32.76 32.76 0 0 1  368.5 581.41 L 335.74 614.17 A 32.76 32.76 0 0 0 368.5 581.41" fill="#2f4052"/><path d="M 368.5 581.41 A 32.76 32.76 0 0 1  401.26 614.17 L 368.5 581.41 A 32.76 32.76 0 0 0 401.26 614.17" fill="#28686a"/><path d="M 335.74 614.17 A 32.76 32.76 0 0 1  368.5 646.93 L 335.74 614.17 A 32.76 32.76 0 0 0 368.5 646.93" fill="#1bb699"/><g transform="translate(368.5,614.17) scale(1.638) rotate(0)"><path d="M10 0L20 10L10 20L0 10L10 0Z" fill="#23857c"/></g><rect x="417.6333333333333" y="581.411111111111" width="65.5111111111111" height="65.5111111111111" fill="#2F4052"/><path d="M 417.63 581.41 A 32.76 32.76 0 0 1  450.39 614.17 L 417.63 581.41 A 32.76 32.76 0 0 0 450.39 614.17" fill="#2f4052"/><g transform="translate(450.39,581.41) scale(1.638) rotate(0)"><path d="M10 0L20 10L10 20L0 10L10 0Z" fill="#2f4052"/></g><path d="M 450.39 646.93 A 32.76 32.76 0 0 1  483.15 614.17 L 450.39 646.93 A 32.76 32.76 0 0 0 483.15 614.17" fill="#2f4052"/><rect x="499.5222222222222" y="581.411111111111" width="65.5111111111111" height="65.5111111111111" fill="#2F4052"/><path d="M 499.52 581.41 A 32.76 32.76 0 0 1  532.28 614.17 L 499.52 581.41 A 32.76 32.76 0 0 0 532.28 614.17" fill="#2f4052"/><path d="M 532.28 614.17 A 32.76 32.76 0 0 1  565.04 581.41 L 532.28 614.17 A 32.76 32.76 0 0 0 565.04 581.41" fill="#2f4052"/><path d="M 499.52 646.93 A 32.76 32.76 0 0 1  532.28 614.17 L 499.52 646.93 A 32.76 32.76 0 0 0 532.28 614.17" fill="#23877d"/><g transform="translate(532.28,614.17) scale(1.638) rotate(0)"><path d="M10 0L20 10L10 20L0 10L10 0Z" fill="#2f4052"/></g><rect x="581.411111111111" y="581.411111111111" width="65.5111111111111" height="65.5111111111111" fill="#2F4052"/><g transform="translate(581.41,581.41) scale(1.638) rotate(0)"><path d="M10 0L20 10L10 20L0 10L10 0Z" fill="#2f4052"/></g><g transform="translate(614.17,614.17) scale(1.638) rotate(0)"><path d="M10 0L20 10L10 20L0 10L10 0Z" fill="#2f4052"/></g><rect x="663.3" y="581.411111111111" width="65.5111111111111" height="65.5111111111111" fill="#2F4052"/><g transform="translate(663.3,581.41) scale(1.638) rotate(0)"><path d="M10 0L20 10L10 20L0 10L10 0Z" fill="#296367"/></g><g transform="translate(696.06,581.41) scale(1.638) rotate(0)"><path d="M10 0L20 10L10 20L0 10L10 0Z" fill="#219485"/></g><g transform="translate(696.06,614.17) scale(1.638) rotate(0)"><path d="M10 0L20 10L10 20L0 10L10 0Z" fill="#2f4052"/></g><rect x="745.1888888888889" y="581.411111111111" width="65.5111111111111" height="65.5111111111111" fill="#2F4052"/><path d="M 745.19 581.41 A 32.76 32.76 0 0 1  777.95 614.17 L 745.19 581.41 A 32.76 32.76 0 0 0 777.95 614.17" fill="#24827a"/><path d="M 777.94 581.41 A 32.76 32.76 0 0 1  810.7 614.17 L 777.94 581.41 A 32.76 32.76 0 0 0 810.7 614.17" fill="#219585"/><path d="M 745.19 646.93 A 32.76 32.76 0 0 1  777.95 614.17 L 745.19 646.93 A 32.76 32.76 0 0 0 777.95 614.17" fill="#2f4052"/><rect x="827.0777777777778" y="581.411111111111" width="65.5111111111111" height="65.5111111111111" fill="#2F4052"/><path d="M 827.08 614.17 A 32.76 32.76 0 0 1  859.84 581.41 L 827.08 614.17 A 32.76 32.76 0 0 0 859.84 581.41" fill="#2a5d63"/><g transform="translate(859.83,581.41) scale(1.638) rotate(0)"><path d="M10 0L20 10L10 20L0 10L10 0Z" fill="#28696b"/></g><path d="M 827.08 614.17 A 32.76 32.76 0 0 1  859.84 646.93 L 827.08 614.17 A 32.76 32.76 0 0 0 859.84 646.93" fill="#2d4958"/><g transform="translate(859.83,614.17) scale(1.638) rotate(0)"><path d="M10 0L20 10L10 20L0 10L10 0Z" fill="#2f4052"/></g><rect x="908.9666666666666" y="581.411111111111" width="65.5111111111111" height="65.5111111111111" fill="#2F4052"/><g transform="translate(908.97,581.41) scale(1.638) rotate(0)"><path d="M10 0L20 10L10 20L0 10L10 0Z" fill="#2f4052"/></g><path d="M 941.72 581.41 A 32.76 32.76 0 0 1  974.48 614.17 L 941.72 581.41 A 32.76 32.76 0 0 0 974.48 614.17" fill="#2f4052"/><g transform="translate(908.97,614.17) scale(1.638) rotate(0)"><path d="M10 0L20 10L10 20L0 10L10 0Z" fill="#2f4052"/></g><path d="M 941.72 614.17 A 32.76 32.76 0 0 1  974.48 646.93 L 941.72 614.17 A 32.76 32.76 0 0 0 974.48 646.93" fill="#1bb699"/><rect x="990.8555555555555" y="581.411111111111" width="65.5111111111111" height="65.5111111111111" fill="#2F4052"/><path d="M 990.86 581.41 A 32.76 32.76 0 0 1  1023.62 614.17 L 990.86 581.41 A 32.76 32.76 0 0 0 1023.62 614.17" fill="#267873"/><path d="M 1023.61 581.41 A 32.76 32.76 0 0 1  1056.3700000000001 614.17 L 1023.61 581.41 A 32.76 32.76 0 0 0 1056.3700000000001 614.17" fill="#2f4052"/><path d="M 1023.61 646.93 A 32.76 32.76 0 0 1  1056.3700000000001 614.17 L 1023.61 646.93 A 32.76 32.76 0 0 0 1056.3700000000001 614.17" fill="#23837b"/><rect x="1072.7444444444443" y="581.411111111111" width="65.5111111111111" height="65.5111111111111" fill="#2F4052"/><path d="M 1072.74 581.41 A 32.76 32.76 0 0 1  1105.5 614.17 L 1072.74 581.41 A 32.76 32.76 0 0 0 1105.5 614.17" fill="#2c515c"/><path d="M 1105.5 581.41 A 32.76 32.76 0 0 1  1138.26 614.17 L 1105.5 581.41 A 32.76 32.76 0 0 0 1138.26 614.17" fill="#2f4052"/><path d="M 1072.74 614.17 A 32.76 32.76 0 0 1  1105.5 646.93 L 1072.74 614.17 A 32.76 32.76 0 0 0 1105.5 646.93" fill="#2f4052"/><rect x="1236.5222222222221" y="581.411111111111" width="65.5111111111111" height="65.5111111111111" fill="#2F4052"/><path d="M 1236.52 581.41 A 32.76 32.76 0 0 1  1269.28 614.17 L 1236.52 581.41 A 32.76 32.76 0 0 0 1269.28 614.17" fill="#228c7f"/><path d="M 1269.28 581.41 A 32.76 32.76 0 0 1  1302.04 614.17 L 1269.28 581.41 A 32.76 32.76 0 0 0 1302.04 614.17" fill="#1bb799"/><g transform="translate(1236.52,614.17) scale(1.638) rotate(0)"><path d="M10 0L20 10L10 20L0 10L10 0Z" fill="#2f4052"/></g><path d="M 1269.28 646.93 A 32.76 32.76 0 0 1  1302.04 614.17 L 1269.28 646.93 A 32.76 32.76 0 0 0 1302.04 614.17" fill="#2f4052"/><rect x="8.188888888888888" y="663.3" width="65.5111111111111" height="65.5111111111111" fill="#2F4052"/><g transform="translate(8.19,663.3) scale(1.638) rotate(0)"><path d="M10 0L20 10L10 20L0 10L10 0Z" fill="#1ea28d"/></g><path d="M 40.94 663.3 A 32.76 32.76 0 0 1  73.69999999999999 696.06 L 40.94 663.3 A 32.76 32.76 0 0 0 73.69999999999999 696.06" fill="#2f4052"/><g transform="translate(8.19,696.06) scale(1.638) rotate(0)"><path d="M10 0L20 10L10 20L0 10L10 0Z" fill="#2f4052"/></g><path d="M 40.94 728.8199999999999 A 32.76 32.76 0 0 1  73.69999999999999 696.06 L 40.94 728.8199999999999 A 32.76 32.76 0 0 0 73.69999999999999 696.06" fill="#2f4052"/><rect x="90.07777777777777" y="663.3" width="65.5111111111111" height="65.5111111111111" fill="#2F4052"/><g transform="translate(90.08,663.3) scale(1.638) rotate(0)"><path d="M10 0L20 10L10 20L0 10L10 0Z" fill="#219082"/></g><path d="M 122.83 663.3 A 32.76 32.76 0 0 1  155.59 696.06 L 122.83 663.3 A 32.76 32.76 0 0 0 155.59 696.06" fill="#257c76"/><path d="M 90.08 728.8199999999999 A 32.76 32.76 0 0 1  122.84 696.06 L 90.08 728.8199999999999 A 32.76 32.76 0 0 0 122.84 696.06" fill="#2b5a62"/><path d="M 122.83 696.06 A 32.76 32.76 0 0 1  155.59 728.8199999999999 L 122.83 696.06 A 32.76 32.76 0 0 0 155.59 728.8199999999999" fill="#2f4052"/><rect x="171.96666666666667" y="663.3" width="65.5111111111111" height="65.5111111111111" fill="#2F4052"/><path d="M 171.97 663.3 A 32.76 32.76 0 0 1  204.73 696.06 L 171.97 663.3 A 32.76 32.76 0 0 0 204.73 696.06" fill="#24837a"/><g transform="translate(204.72,663.3) scale(1.638) rotate(0)"><path d="M10 0L20 10L10 20L0 10L10 0Z" fill="#2f4052"/></g><path d="M 171.97 728.8199999999999 A 32.76 32.76 0 0 1  204.73 696.06 L 171.97 728.8199999999999 A 32.76 32.76 0 0 0 204.73 696.06" fill="#2f4052"/><g transform="translate(204.72,696.06) scale(1.638) rotate(0)"><path d="M10 0L20 10L10 20L0 10L10 0Z" fill="#2f4052"/></g><rect x="253.85555555555555" y="663.3" width="65.5111111111111" height="65.5111111111111" fill="#2F4052"/><path d="M 253.86 696.06 A 32.76 32.76 0 0 1  286.62 663.3 L 253.86 696.06 A 32.76 32.76 0 0 0 286.62 663.3" fill="#2f4052"/><g transform="translate(286.61,663.3) scale(1.638) rotate(0)"><path d="M10 0L20 10L10 20L0 10L10 0Z" fill="#2b5760"/></g><path d="M 253.86 728.8199999999999 A 32.76 32.76 0 0 1  286.62 696.06 L 253.86 728.8199999999999 A 32.76 32.76 0 0 0 286.62 696.06" fill="#1ea68f"/><path d="M 286.61 696.06 A 32.76 32.76 0 0 1  319.37 728.8199999999999 L 286.61 696.06 A 32.76 32.76 0 0 0 319.37 728.8199999999999" fill="#1fa08c"/><rect x="335.7444444444444" y="663.3" width="65.5111111111111" height="65.5111111111111" fill="#2F4052"/><g transform="translate(335.74,663.3) scale(1.638) rotate(0)"><path d="M10 0L20 10L10 20L0 10L10 0Z" fill="#1bb397"/></g><path d="M 368.5 663.3 A 32.76 32.76 0 0 1  401.26 696.06 L 368.5 663.3 A 32.76 32.76 0 0 0 401.26 696.06" fill="#2f4052"/><path d="M 335.74 728.8199999999999 A 32.76 32.76 0 0 1  368.5 696.06 L 335.74 728.8199999999999 A 32.76 32.76 0 0 0 368.5 696.06" fill="#2f4052"/><path d="M 368.5 696.06 A 32.76 32.76 0 0 1  401.26 728.8199999999999 L 368.5 696.06 A 32.76 32.76 0 0 0 401.26 728.8199999999999" fill="#2f4052"/><rect x="417.6333333333333" y="663.3" width="65.5111111111111" height="65.5111111111111" fill="#2F4052"/><path d="M 417.63 663.3 A 32.76 32.76 0 0 1  450.39 696.06 L 417.63 663.3 A 32.76 32.76 0 0 0 450.39 696.06" fill="#1ab99b"/><path d="M 450.39 663.3 A 32.76 32.76 0 0 1  483.15 696.06 L 450.39 663.3 A 32.76 32.76 0 0 0 483.15 696.06" fill="#2f4052"/><g transform="translate(417.63,696.06) scale(1.638) rotate(0)"><path d="M10 0L20 10L10 20L0 10L10 0Z" fill="#23867c"/></g><g transform="translate(450.39,696.06) scale(1.638) rotate(0)"><path d="M10 0L20 10L10 20L0 10L10 0Z" fill="#228e81"/></g><rect x="499.5222222222222" y="663.3" width="65.5111111111111" height="65.5111111111111" fill="#2F4052"/><g transform="translate(499.52,663.3) scale(1.638) rotate(0)"><path d="M10 0L20 10L10 20L0 10L10 0Z" fill="#2f4052"/></g><g transform="translate(532.28,663.3) scale(1.638) rotate(0)"><path d="M10 0L20 10L10 20L0 10L10 0Z" fill="#2e4455"/></g><g transform="translate(499.52,696.06) scale(1.638) rotate(0)"><path d="M10 0L20 10L10 20L0 10L10 0Z" fill="#2f4052"/></g><g transform="translate(532.28,696.06) scale(1.638) rotate(0)"><path d="M10 0L20 10L10 20L0 10L10 0Z" fill="#1ab89a"/></g><rect x="581.411111111111" y="663.3" width="65.5111111111111" height="65.5111111111111" fill="#2F4052"/><path d="M 581.41 696.06 A 32.76 32.76 0 0 1  614.17 663.3 L 581.41 696.06 A 32.76 32.76 0 0 0 614.17 663.3" fill="#2f4052"/><g transform="translate(614.17,663.3) scale(1.638) rotate(0)"><path d="M10 0L20 10L10 20L0 10L10 0Z" fill="#23887e"/></g><g transform="translate(581.41,696.06) scale(1.638) rotate(0)"><path d="M10 0L20 10L10 20L0 10L10 0Z" fill="#2f4253"/></g><path d="M 614.17 696.06 A 32.76 32.76 0 0 1  646.93 728.8199999999999 L 614.17 696.06 A 32.76 32.76 0 0 0 646.93 728.8199999999999" fill="#228b7f"/><rect x="663.3" y="663.3" width="65.5111111111111" height="65.5111111111111" fill="#2F4052"/><g transform="translate(663.3,663.3) scale(1.638) rotate(0)"><path d="M10 0L20 10L10 20L0 10L10 0Z" fill="#2f4052"/></g><path d="M 696.06 696.06 A 32.76 32.76 0 0 1  728.8199999999999 663.3 L 696.06 696.06 A 32.76 32.76 0 0 0 728.8199999999999 663.3" fill="#296669"/><path d="M 663.3 696.06 A 32.76 32.76 0 0 1  696.06 728.8199999999999 L 663.3 696.06 A 32.76 32.76 0 0 0 696.06 728.8199999999999" fill="#257874"/><path d="M 696.06 728.8199999999999 A 32.76 32.76 0 0 1  728.8199999999999 696.06 L 696.06 728.8199999999999 A 32.76 32.76 0 0 0 728.8199999999999 696.06" fill="#2f4052"/><rect x="745.1888888888889" y="663.3" width="65.5111111111111" height="65.5111111111111" fill="#2F4052"/><path d="M 745.19 696.06 A 32.76 32.76 0 0 1  777.95 663.3 L 745.19 696.06 A 32.76 32.76 0 0 0 777.95 663.3" fill="#228c80"/><path d="M 777.94 663.3 A 32.76 32.76 0 0 1  810.7 696.06 L 777.94 663.3 A 32.76 32.76 0 0 0 810.7 696.06" fill="#2f4052"/><path d="M 745.19 696.06 A 32.76 32.76 0 0 1  777.95 728.8199999999999 L 745.19 696.06 A 32.76 32.76 0 0 0 777.95 728.8199999999999" fill="#2f4052"/><path d="M 777.94 728.8199999999999 A 32.76 32.76 0 0 1  810.7 696.06 L 777.94 728.8199999999999 A 32.76 32.76 0 0 0 810.7 696.06" fill="#2a5f65"/><rect x="827.0777777777778" y="663.3" width="65.5111111111111" height="65.5111111111111" fill="#2F4052"/><path d="M 827.08 696.06 A 32.76 32.76 0 0 1  859.84 663.3 L 827.08 696.06 A 32.76 32.76 0 0 0 859.84 663.3" fill="#2f4052"/><path d="M 859.83 696.06 A 32.76 32.76 0 0 1  892.59 663.3 L 859.83 696.06 A 32.76 32.76 0 0 0 892.59 663.3" fill="#257874"/><g transform="translate(827.08,696.06) scale(1.638) rotate(0)"><path d="M10 0L20 10L10 20L0 10L10 0Z" fill="#2f4052"/></g><g transform="translate(859.83,696.06) scale(1.638) rotate(0)"><path d="M10 0L20 10L10 20L0 10L10 0Z" fill="#2a5d64"/></g><rect x="908.9666666666666" y="663.3" width="65.5111111111111" height="65.5111111111111" fill="#2F4052"/><g transform="translate(908.97,663.3) scale(1.638) rotate(0)"><path d="M10 0L20 10L10 20L0 10L10 0Z" fill="#2f4052"/></g><g transform="translate(941.72,663.3) scale(1.638) rotate(0)"><path d="M10 0L20 10L10 20L0 10L10 0Z" fill="#2f4052"/></g><path d="M 908.97 696.06 A 32.76 32.76 0 0 1  941.73 728.8199999999999 L 908.97 696.06 A 32.76 32.76 0 0 0 941.73 728.8199999999999" fill="#2c505c"/><g transform="translate(941.72,696.06) scale(1.638) rotate(0)"><path d="M10 0L20 10L10 20L0 10L10 0Z" fill="#286a6b"/></g><rect x="990.8555555555555" y="663.3" width="65.5111111111111" height="65.5111111111111" fill="#2F4052"/><path d="M 990.86 696.06 A 32.76 32.76 0 0 1  1023.62 663.3 L 990.86 696.06 A 32.76 32.76 0 0 0 1023.62 663.3" fill="#2f4052"/><path d="M 1023.61 696.06 A 32.76 32.76 0 0 1  1056.3700000000001 663.3 L 1023.61 696.06 A 32.76 32.76 0 0 0 1056.3700000000001 663.3" fill="#2b565f"/><path d="M 990.86 696.06 A 32.76 32.76 0 0 1  1023.62 728.8199999999999 L 990.86 696.06 A 32.76 32.76 0 0 0 1023.62 728.8199999999999" fill="#2c535e"/><g transform="translate(1023.61,696.06) scale(1.638) rotate(0)"><path d="M10 0L20 10L10 20L0 10L10 0Z" fill="#2f4052"/></g><rect x="1072.7444444444443" y="663.3" width="65.5111111111111" height="65.5111111111111" fill="#2F4052"/><g transform="translate(1072.74,663.3) scale(1.638) rotate(0)"><path d="M10 0L20 10L10 20L0 10L10 0Z" fill="#2f4052"/></g><g transform="translate(1105.5,663.3) scale(1.638) rotate(0)"><path d="M10 0L20 10L10 20L0 10L10 0Z" fill="#2f4052"/></g><g transform="translate(1072.74,696.06) scale(1.638) rotate(0)"><path d="M10 0L20 10L10 20L0 10L10 0Z" fill="#247e77"/></g><g transform="translate(1105.5,696.06) scale(1.638) rotate(0)"><path d="M10 0L20 10L10 20L0 10L10 0Z" fill="#2f4052"/></g><rect x="1154.6333333333332" y="663.3" width="65.5111111111111" height="65.5111111111111" fill="#2F4052"/><path d="M 1154.63 663.3 A 32.76 32.76 0 0 1  1187.39 696.06 L 1154.63 663.3 A 32.76 32.76 0 0 0 1187.39 696.06" fill="#2f4052"/><path d="M 1187.39 696.06 A 32.76 32.76 0 0 1  1220.15 663.3 L 1187.39 696.06 A 32.76 32.76 0 0 0 1220.15 663.3" fill="#2f4052"/><path d="M 1154.63 728.8199999999999 A 32.76 32.76 0 0 1  1187.39 696.06 L 1154.63 728.8199999999999 A 32.76 32.76 0 0 0 1187.39 696.06" fill="#2c515c"/><g transform="translate(1187.39,696.06) scale(1.638) rotate(0)"><path d="M10 0L20 10L10 20L0 10L10 0Z" fill="#2f4052"/></g><rect x="1236.5222222222221" y="663.3" width="65.5111111111111" height="65.5111111111111" fill="#2F4052"/><path d="M 1236.52 663.3 A 32.76 32.76 0 0 1  1269.28 696.06 L 1236.52 663.3 A 32.76 32.76 0 0 0 1269.28 696.06" fill="#2f4052"/><path d="M 1269.28 696.06 A 32.76 32.76 0 0 1  1302.04 663.3 L 1269.28 696.06 A 32.76 32.76 0 0 0 1302.04 663.3" fill="#1f9c89"/><g transform="translate(1236.52,696.06) scale(1.638) rotate(0)"><path d="M10 0L20 10L10 20L0 10L10 0Z" fill="#2f4052"/></g><path d="M 1269.28 728.8199999999999 A 32.76 32.76 0 0 1  1302.04 696.06 L 1269.28 728.8199999999999 A 32.76 32.76 0 0 0 1302.04 696.06" fill="#2f4052"/></g></svg>