<?xml version="1.0" standalone="no"?><svg xmlns:xlink="http://www.w3.org/1999/xlink" xmlns="http://www.w3.org/2000/svg" viewBox="0 0 1000 571.4285714285714" preserveAspectRatio="xMaxYMax slice"><g transform="scale(0.7753440589261484)"><rect x="0" y="0" width="1289.75" height="737" fill="#2F4052"/><rect x="23.03125" y="115.15625" width="46.0625" height="46.0625" fill="#2F4052"/><path d="M 46.06 161.22 A 23.03 23.03 0 0 1  69.09 138.19 L 46.06 161.22 A 23.03 23.03 0 0 0 69.09 138.19" fill="#2c4c59"/><rect x="299.40625" y="115.15625" width="46.0625" height="46.0625" fill="#2F4052"/><path d="M 322.44 138.19 A 23.03 23.03 0 0 1  345.47 115.16 L 322.44 138.19 A 23.03 23.03 0 0 0 345.47 115.16" fill="#1e8b7c"/><rect x="391.53125" y="115.15625" width="46.0625" height="46.0625" fill="#2F4052"/><path d="M 391.53 138.19 A 23.03 23.03 0 0 1  414.55999999999995 115.16 L 391.53 138.19 A 23.03 23.03 0 0 0 414.55999999999995 115.16" fill="#227871"/><rect x="575.78125" y="115.15625" width="46.0625" height="46.0625" fill="#2F4052"/><rect x="115.15625" y="207.28125" width="46.0625" height="46.0625" fill="#2F4052"/><path d="M 115.16 253.34 A 23.03 23.03 0 0 1  138.19 230.31 L 115.16 253.34 A 23.03 23.03 0 0 0 138.19 230.31" fill="#1a9b85"/><path d="M 138.19 230.31 A 23.03 23.03 0 0 1  161.22 253.34 L 138.19 230.31 A 23.03 23.03 0 0 0 161.22 253.34" fill="#2e4555"/><rect x="299.40625" y="207.28125" width="46.0625" height="46.0625" fill="#2F4052"/><path d="M 322.44 207.28 A 23.03 23.03 0 0 1  345.47 230.31 L 322.44 207.28 A 23.03 23.03 0 0 0 345.47 230.31" fill="#276466"/><path d="M 299.41 253.34 A 23.03 23.03 0 0 1  322.44000000000005 230.31 L 299.41 253.34 A 23.03 23.03 0 0 0 322.44000000000005 230.31" fill="#217d74"/><path d="M 322.44 230.31 A 23.03 23.03 0 0 1  345.47 253.34 L 322.44 230.31 A 23.03 23.03 0 0 0 345.47 253.34" fill="#19a188"/><rect x="760.03125" y="207.28125" width="46.0625" height="46.0625" fill="#2F4052"/><path d="M 760.03 230.31 A 23.03 23.03 0 0 1  783.06 207.28 L 760.03 230.31 A 23.03 23.03 0 0 0 783.06 207.28" fill="#23736f"/><path d="M 783.06 207.28 A 23.03 23.03 0 0 1  806.0899999999999 230.31 L 783.06 207.28 A 23.03 23.03 0 0 0 806.0899999999999 230.31" fill="#17a78b"/><path d="M 783.06 253.34 A 23.03 23.03 0 0 1  806.0899999999999 230.31 L 783.06 253.34 A 23.03 23.03 0 0 0 806.0899999999999 230.31" fill="#18a389"/><rect x="944.28125" y="207.28125" width="46.0625" height="46.0625" fill="#2F4052"/><path d="M 944.28 230.31 A 23.03 23.03 0 0 1  967.31 207.28 L 944.28 230.31 A 23.03 23.03 0 0 0 967.31 207.28" fill="#1d8e7d"/><rect x="1128.53125" y="207.28125" width="46.0625" height="46.0625" fill="#2F4052"/><path d="M 1128.53 207.28 A 23.03 23.03 0 0 1  1151.56 230.31 L 1128.53 207.28 A 23.03 23.03 0 0 0 1151.56 230.31" fill="#2b525c"/><rect x="23.03125" y="299.40625" width="46.0625" height="46.0625" fill="#2F4052"/><path d="M 46.06 299.41 A 23.03 23.03 0 0 1  69.09 322.44000000000005 L 46.06 299.41 A 23.03 23.03 0 0 0 69.09 322.44000000000005" fill="#18a389"/><path d="M 46.06 345.47 A 23.03 23.03 0 0 1  69.09 322.44 L 46.06 345.47 A 23.03 23.03 0 0 0 69.09 322.44" fill="#276265"/><rect x="299.40625" y="299.40625" width="46.0625" height="46.0625" fill="#2F4052"/><path d="M 322.44 299.41 A 23.03 23.03 0 0 1  345.47 322.44000000000005 L 322.44 299.41 A 23.03 23.03 0 0 0 345.47 322.44000000000005" fill="#208277"/><rect x="483.65625" y="299.40625" width="46.0625" height="46.0625" fill="#2F4052"/><path d="M 506.69 322.44000000000005 A 23.03 23.03 0 0 1  529.72 299.41 L 506.69 322.44000000000005 A 23.03 23.03 0 0 0 529.72 299.41" fill="#237570"/><path d="M 483.66 345.47 A 23.03 23.03 0 0 1  506.69000000000005 322.44 L 483.66 345.47 A 23.03 23.03 0 0 0 506.69000000000005 322.44" fill="#2c4c59"/><rect x="575.78125" y="299.40625" width="46.0625" height="46.0625" fill="#2F4052"/><path d="M 598.81 322.44000000000005 A 23.03 23.03 0 0 1  621.8399999999999 299.41 L 598.81 322.44000000000005 A 23.03 23.03 0 0 0 621.8399999999999 299.41" fill="#2f4052"/><rect x="944.28125" y="299.40625" width="46.0625" height="46.0625" fill="#2F4052"/><rect x="1036.40625" y="299.40625" width="46.0625" height="46.0625" fill="#2F4052"/><rect x="115.15625" y="391.53125" width="46.0625" height="46.0625" fill="#2F4052"/><path d="M 115.16 391.53 A 23.03 23.03 0 0 1  138.19 414.55999999999995 L 115.16 391.53 A 23.03 23.03 0 0 0 138.19 414.55999999999995" fill="#295b61"/><path d="M 115.16 414.56 A 23.03 23.03 0 0 1  138.19 437.59000000000003 L 115.16 414.56 A 23.03 23.03 0 0 0 138.19 437.59000000000003" fill="#2a565e"/><path d="M 138.19 414.56 A 23.03 23.03 0 0 1  161.22 437.59000000000003 L 138.19 414.56 A 23.03 23.03 0 0 0 161.22 437.59000000000003" fill="#2a545d"/><rect x="207.28125" y="391.53125" width="46.0625" height="46.0625" fill="#2F4052"/><path d="M 207.28 414.56 A 23.03 23.03 0 0 1  230.31 437.59000000000003 L 207.28 414.56 A 23.03 23.03 0 0 0 230.31 437.59000000000003" fill="#23746f"/><path d="M 230.31 437.59000000000003 A 23.03 23.03 0 0 1  253.34 414.56 L 230.31 437.59000000000003 A 23.03 23.03 0 0 0 253.34 414.56" fill="#266768"/><rect x="391.53125" y="391.53125" width="46.0625" height="46.0625" fill="#2F4052"/><path d="M 391.53 391.53 A 23.03 23.03 0 0 1  414.55999999999995 414.55999999999995 L 391.53 391.53 A 23.03 23.03 0 0 0 414.55999999999995 414.55999999999995" fill="#208075"/><path d="M 414.56 414.55999999999995 A 23.03 23.03 0 0 1  437.59000000000003 391.53 L 414.56 414.55999999999995 A 23.03 23.03 0 0 0 437.59000000000003 391.53" fill="#24716d"/><path d="M 391.53 437.59000000000003 A 23.03 23.03 0 0 1  414.55999999999995 414.56 L 391.53 437.59000000000003 A 23.03 23.03 0 0 0 414.55999999999995 414.56" fill="#266868"/><path d="M 414.56 414.56 A 23.03 23.03 0 0 1  437.59000000000003 437.59000000000003 L 414.56 414.56 A 23.03 23.03 0 0 0 437.59000000000003 437.59000000000003" fill="#2f4052"/><rect x="575.78125" y="391.53125" width="46.0625" height="46.0625" fill="#2F4052"/><path d="M 575.78 391.53 A 23.03 23.03 0 0 1  598.81 414.55999999999995 L 575.78 391.53 A 23.03 23.03 0 0 0 598.81 414.55999999999995" fill="#1e8a7b"/><path d="M 598.81 391.53 A 23.03 23.03 0 0 1  621.8399999999999 414.55999999999995 L 598.81 391.53 A 23.03 23.03 0 0 0 621.8399999999999 414.55999999999995" fill="#276265"/><path d="M 575.78 437.59000000000003 A 23.03 23.03 0 0 1  598.81 414.56 L 575.78 437.59000000000003 A 23.03 23.03 0 0 0 598.81 414.56" fill="#295b61"/><path d="M 598.81 437.59000000000003 A 23.03 23.03 0 0 1  621.8399999999999 414.56 L 598.81 437.59000000000003 A 23.03 23.03 0 0 0 621.8399999999999 414.56" fill="#1f8779"/><rect x="667.90625" y="391.53125" width="46.0625" height="46.0625" fill="#2F4052"/><path d="M 690.94 391.53 A 23.03 23.03 0 0 1  713.97 414.55999999999995 L 690.94 391.53 A 23.03 23.03 0 0 0 713.97 414.55999999999995" fill="#1b9883"/><path d="M 667.91 414.56 A 23.03 23.03 0 0 1  690.9399999999999 437.59000000000003 L 667.91 414.56 A 23.03 23.03 0 0 0 690.9399999999999 437.59000000000003" fill="#2b515b"/><path d="M 690.94 437.59000000000003 A 23.03 23.03 0 0 1  713.97 414.56 L 690.94 437.59000000000003 A 23.03 23.03 0 0 0 713.97 414.56" fill="#2a565e"/><rect x="760.03125" y="391.53125" width="46.0625" height="46.0625" fill="#2F4052"/><path d="M 760.03 391.53 A 23.03 23.03 0 0 1  783.06 414.55999999999995 L 760.03 391.53 A 23.03 23.03 0 0 0 783.06 414.55999999999995" fill="#217b73"/><path d="M 783.06 414.55999999999995 A 23.03 23.03 0 0 1  806.0899999999999 391.53 L 783.06 414.55999999999995 A 23.03 23.03 0 0 0 806.0899999999999 391.53" fill="#19a088"/><rect x="944.28125" y="391.53125" width="46.0625" height="46.0625" fill="#2F4052"/><path d="M 944.28 391.53 A 23.03 23.03 0 0 1  967.31 414.55999999999995 L 944.28 391.53 A 23.03 23.03 0 0 0 967.31 414.55999999999995" fill="#2a555e"/><path d="M 967.31 414.55999999999995 A 23.03 23.03 0 0 1  990.3399999999999 391.53 L 967.31 414.55999999999995 A 23.03 23.03 0 0 0 990.3399999999999 391.53" fill="#1b9983"/><path d="M 967.31 414.56 A 23.03 23.03 0 0 1  990.3399999999999 437.59000000000003 L 967.31 414.56 A 23.03 23.03 0 0 0 990.3399999999999 437.59000000000003" fill="#285f63"/><rect x="1036.40625" y="391.53125" width="46.0625" height="46.0625" fill="#2F4052"/><path d="M 1036.41 391.53 A 23.03 23.03 0 0 1  1059.44 414.55999999999995 L 1036.41 391.53 A 23.03 23.03 0 0 0 1059.44 414.55999999999995" fill="#217e75"/><rect x="1220.65625" y="391.53125" width="46.0625" height="46.0625" fill="#2F4052"/><path d="M 1220.66 414.56 A 23.03 23.03 0 0 1  1243.69 437.59000000000003 L 1220.66 414.56 A 23.03 23.03 0 0 0 1243.69 437.59000000000003" fill="#256b6a"/><path d="M 1243.69 437.59000000000003 A 23.03 23.03 0 0 1  1266.72 414.56 L 1243.69 437.59000000000003 A 23.03 23.03 0 0 0 1266.72 414.56" fill="#217d74"/><rect x="23.03125" y="483.65625" width="46.0625" height="46.0625" fill="#2F4052"/><path d="M 23.03 506.69000000000005 A 23.03 23.03 0 0 1  46.06 483.66 L 23.03 506.69000000000005 A 23.03 23.03 0 0 0 46.06 483.66" fill="#266868"/><path d="M 46.06 483.66 A 23.03 23.03 0 0 1  69.09 506.69000000000005 L 46.06 483.66 A 23.03 23.03 0 0 0 69.09 506.69000000000005" fill="#227771"/><rect x="115.15625" y="483.65625" width="46.0625" height="46.0625" fill="#2F4052"/><path d="M 115.16 483.66 A 23.03 23.03 0 0 1  138.19 506.69000000000005 L 115.16 483.66 A 23.03 23.03 0 0 0 138.19 506.69000000000005" fill="#2c4b58"/><path d="M 115.16 506.69 A 23.03 23.03 0 0 1  138.19 529.72 L 115.16 506.69 A 23.03 23.03 0 0 0 138.19 529.72" fill="#208076"/><path d="M 138.19 529.72 A 23.03 23.03 0 0 1  161.22 506.69 L 138.19 529.72 A 23.03 23.03 0 0 0 161.22 506.69" fill="#1f8579"/><rect x="207.28125" y="483.65625" width="46.0625" height="46.0625" fill="#2F4052"/><path d="M 207.28 483.66 A 23.03 23.03 0 0 1  230.31 506.69000000000005 L 207.28 483.66 A 23.03 23.03 0 0 0 230.31 506.69000000000005" fill="#1a9c85"/><path d="M 230.31 483.66 A 23.03 23.03 0 0 1  253.34 506.69000000000005 L 230.31 483.66 A 23.03 23.03 0 0 0 253.34 506.69000000000005" fill="#286064"/><path d="M 207.28 506.69 A 23.03 23.03 0 0 1  230.31 529.72 L 207.28 506.69 A 23.03 23.03 0 0 0 230.31 529.72" fill="#2e4555"/><rect x="299.40625" y="483.65625" width="46.0625" height="46.0625" fill="#2F4052"/><path d="M 322.44 506.69000000000005 A 23.03 23.03 0 0 1  345.47 483.66 L 322.44 506.69000000000005 A 23.03 23.03 0 0 0 345.47 483.66" fill="#256d6b"/><path d="M 299.41 506.69 A 23.03 23.03 0 0 1  322.44000000000005 529.72 L 299.41 506.69 A 23.03 23.03 0 0 0 322.44000000000005 529.72" fill="#1b9582"/><path d="M 322.44 529.72 A 23.03 23.03 0 0 1  345.47 506.69 L 322.44 529.72 A 23.03 23.03 0 0 0 345.47 506.69" fill="#256d6b"/><rect x="667.90625" y="483.65625" width="46.0625" height="46.0625" fill="#2F4052"/><path d="M 667.91 506.69000000000005 A 23.03 23.03 0 0 1  690.9399999999999 483.66 L 667.91 506.69000000000005 A 23.03 23.03 0 0 0 690.9399999999999 483.66" fill="#295960"/><path d="M 690.94 483.66 A 23.03 23.03 0 0 1  713.97 506.69000000000005 L 690.94 483.66 A 23.03 23.03 0 0 0 713.97 506.69000000000005" fill="#266567"/><path d="M 667.91 506.69 A 23.03 23.03 0 0 1  690.9399999999999 529.72 L 667.91 506.69 A 23.03 23.03 0 0 0 690.9399999999999 529.72" fill="#217e75"/><path d="M 690.94 506.69 A 23.03 23.03 0 0 1  713.97 529.72 L 690.94 506.69 A 23.03 23.03 0 0 0 713.97 529.72" fill="#1d8f7e"/><rect x="852.15625" y="483.65625" width="46.0625" height="46.0625" fill="#2F4052"/><path d="M 852.16 483.66 A 23.03 23.03 0 0 1  875.1899999999999 506.69000000000005 L 852.16 483.66 A 23.03 23.03 0 0 0 875.1899999999999 506.69000000000005" fill="#18a389"/><path d="M 875.19 506.69000000000005 A 23.03 23.03 0 0 1  898.22 483.66 L 875.19 506.69000000000005 A 23.03 23.03 0 0 0 898.22 483.66" fill="#2b505b"/><path d="M 852.16 506.69 A 23.03 23.03 0 0 1  875.1899999999999 529.72 L 852.16 506.69 A 23.03 23.03 0 0 0 875.1899999999999 529.72" fill="#266969"/><path d="M 875.19 529.72 A 23.03 23.03 0 0 1  898.22 506.69 L 875.19 529.72 A 23.03 23.03 0 0 0 898.22 506.69" fill="#227a73"/><rect x="944.28125" y="483.65625" width="46.0625" height="46.0625" fill="#2F4052"/><path d="M 944.28 483.66 A 23.03 23.03 0 0 1  967.31 506.69000000000005 L 944.28 483.66 A 23.03 23.03 0 0 0 967.31 506.69000000000005" fill="#208076"/><path d="M 967.31 506.69000000000005 A 23.03 23.03 0 0 1  990.3399999999999 483.66 L 967.31 506.69000000000005 A 23.03 23.03 0 0 0 990.3399999999999 483.66" fill="#256d6b"/><path d="M 944.28 529.72 A 23.03 23.03 0 0 1  967.31 506.69 L 944.28 529.72 A 23.03 23.03 0 0 0 967.31 506.69" fill="#199e86"/><path d="M 967.31 506.69 A 23.03 23.03 0 0 1  990.3399999999999 529.72 L 967.31 506.69 A 23.03 23.03 0 0 0 990.3399999999999 529.72" fill="#227972"/><rect x="1036.40625" y="483.65625" width="46.0625" height="46.0625" fill="#2F4052"/><path d="M 1036.41 506.69000000000005 A 23.03 23.03 0 0 1  1059.44 483.66 L 1036.41 506.69000000000005 A 23.03 23.03 0 0 0 1059.44 483.66" fill="#1b9883"/><path d="M 1036.41 529.72 A 23.03 23.03 0 0 1  1059.44 506.69 L 1036.41 529.72 A 23.03 23.03 0 0 0 1059.44 506.69" fill="#2b515b"/><path d="M 1059.44 506.69 A 23.03 23.03 0 0 1  1082.47 529.72 L 1059.44 506.69 A 23.03 23.03 0 0 0 1082.47 529.72" fill="#2d4b58"/><rect x="1220.65625" y="483.65625" width="46.0625" height="46.0625" fill="#2F4052"/><path d="M 1220.66 506.69000000000005 A 23.03 23.03 0 0 1  1243.69 483.66 L 1220.66 506.69000000000005 A 23.03 23.03 0 0 0 1243.69 483.66" fill="#2d4a58"/><path d="M 1243.69 506.69000000000005 A 23.03 23.03 0 0 1  1266.72 483.66 L 1243.69 506.69000000000005 A 23.03 23.03 0 0 0 1266.72 483.66" fill="#266969"/><rect x="23.03125" y="575.78125" width="46.0625" height="46.0625" fill="#2F4052"/><path d="M 23.03 598.81 A 23.03 23.03 0 0 1  46.06 575.78 L 23.03 598.81 A 23.03 23.03 0 0 0 46.06 575.78" fill="#2d4a58"/><path d="M 46.06 598.81 A 23.03 23.03 0 0 1  69.09 575.78 L 46.06 598.81 A 23.03 23.03 0 0 0 69.09 575.78" fill="#23726e"/><path d="M 23.03 598.81 A 23.03 23.03 0 0 1  46.06 621.8399999999999 L 23.03 598.81 A 23.03 23.03 0 0 0 46.06 621.8399999999999" fill="#227972"/><path d="M 46.06 621.8399999999999 A 23.03 23.03 0 0 1  69.09 598.81 L 46.06 621.8399999999999 A 23.03 23.03 0 0 0 69.09 598.81" fill="#208277"/><rect x="115.15625" y="575.78125" width="46.0625" height="46.0625" fill="#2F4052"/><path d="M 115.16 575.78 A 23.03 23.03 0 0 1  138.19 598.81 L 115.16 575.78 A 23.03 23.03 0 0 0 138.19 598.81" fill="#2c4b58"/><path d="M 138.19 598.81 A 23.03 23.03 0 0 1  161.22 575.78 L 138.19 598.81 A 23.03 23.03 0 0 0 161.22 575.78" fill="#295960"/><path d="M 138.19 598.81 A 23.03 23.03 0 0 1  161.22 621.8399999999999 L 138.19 598.81 A 23.03 23.03 0 0 0 161.22 621.8399999999999" fill="#217c74"/><rect x="207.28125" y="575.78125" width="46.0625" height="46.0625" fill="#2F4052"/><path d="M 207.28 575.78 A 23.03 23.03 0 0 1  230.31 598.81 L 207.28 575.78 A 23.03 23.03 0 0 0 230.31 598.81" fill="#266869"/><path d="M 230.31 575.78 A 23.03 23.03 0 0 1  253.34 598.81 L 230.31 575.78 A 23.03 23.03 0 0 0 253.34 598.81" fill="#2e4253"/><path d="M 207.28 598.81 A 23.03 23.03 0 0 1  230.31 621.8399999999999 L 207.28 598.81 A 23.03 23.03 0 0 0 230.31 621.8399999999999" fill="#2b515b"/><path d="M 230.31 621.8399999999999 A 23.03 23.03 0 0 1  253.34 598.81 L 230.31 621.8399999999999 A 23.03 23.03 0 0 0 253.34 598.81" fill="#1f8378"/><rect x="299.40625" y="575.78125" width="46.0625" height="46.0625" fill="#2F4052"/><path d="M 299.41 575.78 A 23.03 23.03 0 0 1  322.44000000000005 598.81 L 299.41 575.78 A 23.03 23.03 0 0 0 322.44000000000005 598.81" fill="#199e87"/><path d="M 322.44 575.78 A 23.03 23.03 0 0 1  345.47 598.81 L 322.44 575.78 A 23.03 23.03 0 0 0 345.47 598.81" fill="#2a555e"/><path d="M 299.41 621.8399999999999 A 23.03 23.03 0 0 1  322.44000000000005 598.81 L 299.41 621.8399999999999 A 23.03 23.03 0 0 0 322.44000000000005 598.81" fill="#199f87"/><path d="M 322.44 598.81 A 23.03 23.03 0 0 1  345.47 621.8399999999999 L 322.44 598.81 A 23.03 23.03 0 0 0 345.47 621.8399999999999" fill="#2e4555"/><rect x="391.53125" y="575.78125" width="46.0625" height="46.0625" fill="#2F4052"/><path d="M 414.56 575.78 A 23.03 23.03 0 0 1  437.59000000000003 598.81 L 414.56 575.78 A 23.03 23.03 0 0 0 437.59000000000003 598.81" fill="#199d86"/><path d="M 391.53 598.81 A 23.03 23.03 0 0 1  414.55999999999995 621.8399999999999 L 391.53 598.81 A 23.03 23.03 0 0 0 414.55999999999995 621.8399999999999" fill="#2c4c59"/><path d="M 414.56 621.8399999999999 A 23.03 23.03 0 0 1  437.59000000000003 598.81 L 414.56 621.8399999999999 A 23.03 23.03 0 0 0 437.59000000000003 598.81" fill="#217e75"/><rect x="483.65625" y="575.78125" width="46.0625" height="46.0625" fill="#2F4052"/><path d="M 483.66 598.81 A 23.03 23.03 0 0 1  506.69000000000005 575.78 L 483.66 598.81 A 23.03 23.03 0 0 0 506.69000000000005 575.78" fill="#208076"/><path d="M 506.69 598.81 A 23.03 23.03 0 0 1  529.72 575.78 L 506.69 598.81 A 23.03 23.03 0 0 0 529.72 575.78" fill="#208277"/><path d="M 483.66 598.81 A 23.03 23.03 0 0 1  506.69000000000005 621.8399999999999 L 483.66 598.81 A 23.03 23.03 0 0 0 506.69000000000005 621.8399999999999" fill="#2b515b"/><path d="M 506.69 621.8399999999999 A 23.03 23.03 0 0 1  529.72 598.81 L 506.69 621.8399999999999 A 23.03 23.03 0 0 0 529.72 598.81" fill="#1b9581"/><rect x="575.78125" y="575.78125" width="46.0625" height="46.0625" fill="#2F4052"/><path d="M 575.78 598.81 A 23.03 23.03 0 0 1  598.81 575.78 L 575.78 598.81 A 23.03 23.03 0 0 0 598.81 575.78" fill="#285f63"/><path d="M 598.81 575.78 A 23.03 23.03 0 0 1  621.8399999999999 598.81 L 598.81 575.78 A 23.03 23.03 0 0 0 621.8399999999999 598.81" fill="#246e6c"/><path d="M 575.78 621.8399999999999 A 23.03 23.03 0 0 1  598.81 598.81 L 575.78 621.8399999999999 A 23.03 23.03 0 0 0 598.81 598.81" fill="#1c9380"/><path d="M 598.81 621.8399999999999 A 23.03 23.03 0 0 1  621.8399999999999 598.81 L 598.81 621.8399999999999 A 23.03 23.03 0 0 0 621.8399999999999 598.81" fill="#266768"/><rect x="667.90625" y="575.78125" width="46.0625" height="46.0625" fill="#2F4052"/><path d="M 667.91 598.81 A 23.03 23.03 0 0 1  690.9399999999999 575.78 L 667.91 598.81 A 23.03 23.03 0 0 0 690.9399999999999 575.78" fill="#2d4a58"/><path d="M 690.94 575.78 A 23.03 23.03 0 0 1  713.97 598.81 L 690.94 575.78 A 23.03 23.03 0 0 0 713.97 598.81" fill="#2f4253"/><path d="M 667.91 598.81 A 23.03 23.03 0 0 1  690.9399999999999 621.8399999999999 L 667.91 598.81 A 23.03 23.03 0 0 0 690.9399999999999 621.8399999999999" fill="#208075"/><path d="M 690.94 598.81 A 23.03 23.03 0 0 1  713.97 621.8399999999999 L 690.94 598.81 A 23.03 23.03 0 0 0 713.97 621.8399999999999" fill="#266969"/><rect x="852.15625" y="575.78125" width="46.0625" height="46.0625" fill="#2F4052"/><path d="M 852.16 575.78 A 23.03 23.03 0 0 1  875.1899999999999 598.81 L 852.16 575.78 A 23.03 23.03 0 0 0 875.1899999999999 598.81" fill="#17a78b"/><path d="M 875.19 598.81 A 23.03 23.03 0 0 1  898.22 575.78 L 875.19 598.81 A 23.03 23.03 0 0 0 898.22 575.78" fill="#266667"/><path d="M 852.16 621.8399999999999 A 23.03 23.03 0 0 1  875.1899999999999 598.81 L 852.16 621.8399999999999 A 23.03 23.03 0 0 0 875.1899999999999 598.81" fill="#276365"/><path d="M 875.19 621.8399999999999 A 23.03 23.03 0 0 1  898.22 598.81 L 875.19 621.8399999999999 A 23.03 23.03 0 0 0 898.22 598.81" fill="#208076"/><rect x="944.28125" y="575.78125" width="46.0625" height="46.0625" fill="#2F4052"/><path d="M 944.28 598.81 A 23.03 23.03 0 0 1  967.31 575.78 L 944.28 598.81 A 23.03 23.03 0 0 0 967.31 575.78" fill="#256a6a"/><path d="M 967.31 575.78 A 23.03 23.03 0 0 1  990.3399999999999 598.81 L 967.31 575.78 A 23.03 23.03 0 0 0 990.3399999999999 598.81" fill="#23756f"/><path d="M 944.28 598.81 A 23.03 23.03 0 0 1  967.31 621.8399999999999 L 944.28 598.81 A 23.03 23.03 0 0 0 967.31 621.8399999999999" fill="#1f8478"/><rect x="1036.40625" y="575.78125" width="46.0625" height="46.0625" fill="#2F4052"/><path d="M 1036.41 575.78 A 23.03 23.03 0 0 1  1059.44 598.81 L 1036.41 575.78 A 23.03 23.03 0 0 0 1059.44 598.81" fill="#266869"/><path d="M 1059.44 575.78 A 23.03 23.03 0 0 1  1082.47 598.81 L 1059.44 575.78 A 23.03 23.03 0 0 0 1082.47 598.81" fill="#2a575f"/><path d="M 1036.41 621.8399999999999 A 23.03 23.03 0 0 1  1059.44 598.81 L 1036.41 621.8399999999999 A 23.03 23.03 0 0 0 1059.44 598.81" fill="#2a545d"/><path d="M 1059.44 598.81 A 23.03 23.03 0 0 1  1082.47 621.8399999999999 L 1059.44 598.81 A 23.03 23.03 0 0 0 1082.47 621.8399999999999" fill="#246e6c"/><rect x="1128.53125" y="575.78125" width="46.0625" height="46.0625" fill="#2F4052"/><path d="M 1128.53 598.81 A 23.03 23.03 0 0 1  1151.56 575.78 L 1128.53 598.81 A 23.03 23.03 0 0 0 1151.56 575.78" fill="#266768"/><path d="M 1151.56 575.78 A 23.03 23.03 0 0 1  1174.59 598.81 L 1151.56 575.78 A 23.03 23.03 0 0 0 1174.59 598.81" fill="#237570"/><rect x="1220.65625" y="575.78125" width="46.0625" height="46.0625" fill="#2F4052"/><path d="M 1220.66 598.81 A 23.03 23.03 0 0 1  1243.69 575.78 L 1220.66 598.81 A 23.03 23.03 0 0 0 1243.69 575.78" fill="#237570"/><path d="M 1243.69 598.81 A 23.03 23.03 0 0 1  1266.72 575.78 L 1243.69 598.81 A 23.03 23.03 0 0 0 1266.72 575.78" fill="#1c9380"/><path d="M 1220.66 598.81 A 23.03 23.03 0 0 1  1243.69 621.8399999999999 L 1220.66 598.81 A 23.03 23.03 0 0 0 1243.69 621.8399999999999" fill="#295c62"/><path d="M 1243.69 598.81 A 23.03 23.03 0 0 1  1266.72 621.8399999999999 L 1243.69 598.81 A 23.03 23.03 0 0 0 1266.72 621.8399999999999" fill="#1f8578"/><rect x="23.03125" y="667.90625" width="46.0625" height="46.0625" fill="#2F4052"/><path d="M 23.03 667.91 A 23.03 23.03 0 0 1  46.06 690.9399999999999 L 23.03 667.91 A 23.03 23.03 0 0 0 46.06 690.9399999999999" fill="#227771"/><path d="M 46.06 690.9399999999999 A 23.03 23.03 0 0 1  69.09 667.91 L 46.06 690.9399999999999 A 23.03 23.03 0 0 0 69.09 667.91" fill="#1b9883"/><path d="M 23.03 690.94 A 23.03 23.03 0 0 1  46.06 713.97 L 23.03 690.94 A 23.03 23.03 0 0 0 46.06 713.97" fill="#2b535d"/><path d="M 46.06 713.97 A 23.03 23.03 0 0 1  69.09 690.94 L 46.06 713.97 A 23.03 23.03 0 0 0 69.09 690.94" fill="#2b535c"/><rect x="115.15625" y="667.90625" width="46.0625" height="46.0625" fill="#2F4052"/><path d="M 115.16 667.91 A 23.03 23.03 0 0 1  138.19 690.9399999999999 L 115.16 667.91 A 23.03 23.03 0 0 0 138.19 690.9399999999999" fill="#266969"/><path d="M 138.19 667.91 A 23.03 23.03 0 0 1  161.22 690.9399999999999 L 138.19 667.91 A 23.03 23.03 0 0 0 161.22 690.9399999999999" fill="#2e4656"/><path d="M 115.16 713.97 A 23.03 23.03 0 0 1  138.19 690.94 L 115.16 713.97 A 23.03 23.03 0 0 0 138.19 690.94" fill="#1e887a"/><path d="M 138.19 713.97 A 23.03 23.03 0 0 1  161.22 690.94 L 138.19 713.97 A 23.03 23.03 0 0 0 161.22 690.94" fill="#276165"/><rect x="207.28125" y="667.90625" width="46.0625" height="46.0625" fill="#2F4052"/><path d="M 207.28 690.9399999999999 A 23.03 23.03 0 0 1  230.31 667.91 L 207.28 690.9399999999999 A 23.03 23.03 0 0 0 230.31 667.91" fill="#18a58b"/><path d="M 230.31 667.91 A 23.03 23.03 0 0 1  253.34 690.9399999999999 L 230.31 667.91 A 23.03 23.03 0 0 0 253.34 690.9399999999999" fill="#23756f"/><path d="M 207.28 690.94 A 23.03 23.03 0 0 1  230.31 713.97 L 207.28 690.94 A 23.03 23.03 0 0 0 230.31 713.97" fill="#2a555e"/><path d="M 230.31 713.97 A 23.03 23.03 0 0 1  253.34 690.94 L 230.31 713.97 A 23.03 23.03 0 0 0 253.34 690.94" fill="#23746f"/><rect x="299.40625" y="667.90625" width="46.0625" height="46.0625" fill="#2F4052"/><path d="M 299.41 690.9399999999999 A 23.03 23.03 0 0 1  322.44000000000005 667.91 L 299.41 690.9399999999999 A 23.03 23.03 0 0 0 322.44000000000005 667.91" fill="#227871"/><path d="M 322.44 667.91 A 23.03 23.03 0 0 1  345.47 690.9399999999999 L 322.44 667.91 A 23.03 23.03 0 0 0 345.47 690.9399999999999" fill="#2a565e"/><path d="M 299.41 690.94 A 23.03 23.03 0 0 1  322.44000000000005 713.97 L 299.41 690.94 A 23.03 23.03 0 0 0 322.44000000000005 713.97" fill="#18a58a"/><path d="M 322.44 690.94 A 23.03 23.03 0 0 1  345.47 713.97 L 322.44 690.94 A 23.03 23.03 0 0 0 345.47 713.97" fill="#1e8c7c"/><rect x="391.53125" y="667.90625" width="46.0625" height="46.0625" fill="#2F4052"/><path d="M 391.53 667.91 A 23.03 23.03 0 0 1  414.55999999999995 690.9399999999999 L 391.53 667.91 A 23.03 23.03 0 0 0 414.55999999999995 690.9399999999999" fill="#2e4454"/><path d="M 414.56 667.91 A 23.03 23.03 0 0 1  437.59000000000003 690.9399999999999 L 414.56 667.91 A 23.03 23.03 0 0 0 437.59000000000003 690.9399999999999" fill="#217c74"/><path d="M 391.53 690.94 A 23.03 23.03 0 0 1  414.55999999999995 713.97 L 391.53 690.94 A 23.03 23.03 0 0 0 414.55999999999995 713.97" fill="#2b505b"/><path d="M 414.56 690.94 A 23.03 23.03 0 0 1  437.59000000000003 713.97 L 414.56 690.94 A 23.03 23.03 0 0 0 437.59000000000003 713.97" fill="#2b505b"/><rect x="483.65625" y="667.90625" width="46.0625" height="46.0625" fill="#2F4052"/><path d="M 483.66 667.91 A 23.03 23.03 0 0 1  506.69000000000005 690.9399999999999 L 483.66 667.91 A 23.03 23.03 0 0 0 506.69000000000005 690.9399999999999" fill="#199e86"/><path d="M 506.69 690.9399999999999 A 23.03 23.03 0 0 1  529.72 667.91 L 506.69 690.9399999999999 A 23.03 23.03 0 0 0 529.72 667.91" fill="#24706d"/><path d="M 483.66 713.97 A 23.03 23.03 0 0 1  506.69000000000005 690.94 L 483.66 713.97 A 23.03 23.03 0 0 0 506.69000000000005 690.94" fill="#256b6a"/><path d="M 506.69 690.94 A 23.03 23.03 0 0 1  529.72 713.97 L 506.69 690.94 A 23.03 23.03 0 0 0 529.72 713.97" fill="#2f4052"/><rect x="575.78125" y="667.90625" width="46.0625" height="46.0625" fill="#2F4052"/><path d="M 575.78 690.9399999999999 A 23.03 23.03 0 0 1  598.81 667.91 L 575.78 690.9399999999999 A 23.03 23.03 0 0 0 598.81 667.91" fill="#285f64"/><path d="M 598.81 690.9399999999999 A 23.03 23.03 0 0 1  621.8399999999999 667.91 L 598.81 690.9399999999999 A 23.03 23.03 0 0 0 621.8399999999999 667.91" fill="#2a565f"/><path d="M 575.78 713.97 A 23.03 23.03 0 0 1  598.81 690.94 L 575.78 713.97 A 23.03 23.03 0 0 0 598.81 690.94" fill="#276366"/><path d="M 598.81 713.97 A 23.03 23.03 0 0 1  621.8399999999999 690.94 L 598.81 713.97 A 23.03 23.03 0 0 0 621.8399999999999 690.94" fill="#1a9984"/><rect x="667.90625" y="667.90625" width="46.0625" height="46.0625" fill="#2F4052"/><path d="M 667.91 667.91 A 23.03 23.03 0 0 1  690.9399999999999 690.9399999999999 L 667.91 667.91 A 23.03 23.03 0 0 0 690.9399999999999 690.9399999999999" fill="#1d8c7c"/><path d="M 690.94 690.9399999999999 A 23.03 23.03 0 0 1  713.97 667.91 L 690.94 690.9399999999999 A 23.03 23.03 0 0 0 713.97 667.91" fill="#1b9783"/><path d="M 667.91 713.97 A 23.03 23.03 0 0 1  690.9399999999999 690.94 L 667.91 713.97 A 23.03 23.03 0 0 0 690.9399999999999 690.94" fill="#2e4555"/><path d="M 690.94 690.94 A 23.03 23.03 0 0 1  713.97 713.97 L 690.94 690.94 A 23.03 23.03 0 0 0 713.97 713.97" fill="#246e6c"/><rect x="760.03125" y="667.90625" width="46.0625" height="46.0625" fill="#2F4052"/><path d="M 760.03 690.9399999999999 A 23.03 23.03 0 0 1  783.06 667.91 L 760.03 690.9399999999999 A 23.03 23.03 0 0 0 783.06 667.91" fill="#1d907f"/><path d="M 783.06 690.9399999999999 A 23.03 23.03 0 0 1  806.0899999999999 667.91 L 783.06 690.9399999999999 A 23.03 23.03 0 0 0 806.0899999999999 667.91" fill="#217d74"/><path d="M 760.03 713.97 A 23.03 23.03 0 0 1  783.06 690.94 L 760.03 713.97 A 23.03 23.03 0 0 0 783.06 690.94" fill="#18a48a"/><path d="M 783.06 713.97 A 23.03 23.03 0 0 1  806.0899999999999 690.94 L 783.06 713.97 A 23.03 23.03 0 0 0 806.0899999999999 690.94" fill="#18a289"/><rect x="852.15625" y="667.90625" width="46.0625" height="46.0625" fill="#2F4052"/><path d="M 852.16 667.91 A 23.03 23.03 0 0 1  875.1899999999999 690.9399999999999 L 852.16 667.91 A 23.03 23.03 0 0 0 875.1899999999999 690.9399999999999" fill="#256a69"/><path d="M 875.19 667.91 A 23.03 23.03 0 0 1  898.22 690.9399999999999 L 875.19 667.91 A 23.03 23.03 0 0 0 898.22 690.9399999999999" fill="#199e86"/><path d="M 852.16 690.94 A 23.03 23.03 0 0 1  875.1899999999999 713.97 L 852.16 690.94 A 23.03 23.03 0 0 0 875.1899999999999 713.97" fill="#1f877a"/><path d="M 875.19 690.94 A 23.03 23.03 0 0 1  898.22 713.97 L 875.19 690.94 A 23.03 23.03 0 0 0 898.22 713.97" fill="#2c4b58"/><rect x="944.28125" y="667.90625" width="46.0625" height="46.0625" fill="#2F4052"/><path d="M 944.28 690.9399999999999 A 23.03 23.03 0 0 1  967.31 667.91 L 944.28 690.9399999999999 A 23.03 23.03 0 0 0 967.31 667.91" fill="#2a565e"/><path d="M 967.31 667.91 A 23.03 23.03 0 0 1  990.3399999999999 690.9399999999999 L 967.31 667.91 A 23.03 23.03 0 0 0 990.3399999999999 690.9399999999999" fill="#19a088"/><path d="M 944.28 690.94 A 23.03 23.03 0 0 1  967.31 713.97 L 944.28 690.94 A 23.03 23.03 0 0 0 967.31 713.97" fill="#227871"/><path d="M 967.31 690.94 A 23.03 23.03 0 0 1  990.3399999999999 713.97 L 967.31 690.94 A 23.03 23.03 0 0 0 990.3399999999999 713.97" fill="#256c6b"/><rect x="1036.40625" y="667.90625" width="46.0625" height="46.0625" fill="#2F4052"/><path d="M 1036.41 667.91 A 23.03 23.03 0 0 1  1059.44 690.9399999999999 L 1036.41 667.91 A 23.03 23.03 0 0 0 1059.44 690.9399999999999" fill="#24706d"/><path d="M 1059.44 667.91 A 23.03 23.03 0 0 1  1082.47 690.9399999999999 L 1059.44 667.91 A 23.03 23.03 0 0 0 1082.47 690.9399999999999" fill="#1c917f"/><path d="M 1036.41 713.97 A 23.03 23.03 0 0 1  1059.44 690.94 L 1036.41 713.97 A 23.03 23.03 0 0 0 1059.44 690.94" fill="#23756f"/><path d="M 1059.44 713.97 A 23.03 23.03 0 0 1  1082.47 690.94 L 1059.44 713.97 A 23.03 23.03 0 0 0 1082.47 690.94" fill="#23726e"/><rect x="1128.53125" y="667.90625" width="46.0625" height="46.0625" fill="#2F4052"/><path d="M 1128.53 667.91 A 23.03 23.03 0 0 1  1151.56 690.9399999999999 L 1128.53 667.91 A 23.03 23.03 0 0 0 1151.56 690.9399999999999" fill="#276566"/><path d="M 1151.56 690.9399999999999 A 23.03 23.03 0 0 1  1174.59 667.91 L 1151.56 690.9399999999999 A 23.03 23.03 0 0 0 1174.59 667.91" fill="#285e63"/><path d="M 1128.53 713.97 A 23.03 23.03 0 0 1  1151.56 690.94 L 1128.53 713.97 A 23.03 23.03 0 0 0 1151.56 690.94" fill="#1e897b"/><path d="M 1151.56 713.97 A 23.03 23.03 0 0 1  1174.59 690.94 L 1151.56 713.97 A 23.03 23.03 0 0 0 1174.59 690.94" fill="#1d8c7d"/><rect x="1220.65625" y="667.90625" width="46.0625" height="46.0625" fill="#2F4052"/><path d="M 1220.66 667.91 A 23.03 23.03 0 0 1  1243.69 690.9399999999999 L 1220.66 667.91 A 23.03 23.03 0 0 0 1243.69 690.9399999999999" fill="#276365"/><path d="M 1243.69 667.91 A 23.03 23.03 0 0 1  1266.72 690.9399999999999 L 1243.69 667.91 A 23.03 23.03 0 0 0 1266.72 690.9399999999999" fill="#217d74"/><path d="M 1220.66 713.97 A 23.03 23.03 0 0 1  1243.69 690.94 L 1220.66 713.97 A 23.03 23.03 0 0 0 1243.69 690.94" fill="#1f8478"/><path d="M 1243.69 690.94 A 23.03 23.03 0 0 1  1266.72 713.97 L 1243.69 690.94 A 23.03 23.03 0 0 0 1266.72 713.97" fill="#1e8a7b"/></g></svg>